<svg width="32" height="32" viewBox="0 0 32 32" fill="none" xmlns="http://www.w3.org/2000/svg">
<path d="M18.6665 25.3332C18.9781 25.3338 19.28 25.2253 19.5199 25.0265C19.6549 24.9146 19.7665 24.7771 19.8483 24.622C19.9301 24.4669 19.9805 24.2971 19.9966 24.1225C20.0127 23.9479 19.9942 23.7718 19.9421 23.6043C19.89 23.4368 19.8055 23.2813 19.6932 23.1465L13.7199 15.9999L19.4799 8.83987C19.5906 8.70349 19.6733 8.54656 19.7232 8.37811C19.7731 8.20965 19.7893 8.033 19.7707 7.85829C19.7521 7.68359 19.6992 7.51428 19.6149 7.3601C19.5307 7.20592 19.4168 7.0699 19.2799 6.95987C19.1419 6.83849 18.9803 6.74693 18.8053 6.69095C18.6303 6.63496 18.4456 6.61576 18.2628 6.63454C18.08 6.65332 17.9031 6.70968 17.7431 6.80008C17.5831 6.89048 17.4436 7.01297 17.3332 7.15987L10.8932 15.1599C10.6971 15.3984 10.5899 15.6977 10.5899 16.0065C10.5899 16.3154 10.6971 16.6146 10.8932 16.8532L17.5599 24.8532C17.6936 25.0146 17.8635 25.1421 18.0558 25.2255C18.2481 25.3089 18.4573 25.3458 18.6665 25.3332Z" fill="#49260A"/>
</svg>
