<svg id="arrow" width="27" height="23" viewBox="0 0 27 23" fill="none" xmlns="http://www.w3.org/2000/svg">
<mask id="path-1-inside-1_75_20" fill="white">
<path fill-rule="evenodd" clip-rule="evenodd" d="M1.38281e-06 11.3691C1.36294e-06 11.7998 0.17777 12.2129 0.494203 12.5174C0.810634 12.8219 1.23981 12.993 1.68731 12.993L21.2365 12.993L13.9912 19.9627C13.8343 20.1136 13.7099 20.2929 13.625 20.4901C13.5401 20.6874 13.4964 20.8988 13.4964 21.1124C13.4964 21.3259 13.5401 21.5373 13.625 21.7346C13.7099 21.9318 13.8343 22.1111 13.9912 22.2621C14.1481 22.413 14.3343 22.5328 14.5393 22.6145C14.7443 22.6962 14.9639 22.7383 15.1858 22.7383C15.4077 22.7383 15.6274 22.6962 15.8323 22.6145C16.0373 22.5328 16.2235 22.413 16.3804 22.2621L26.5043 12.5188C26.6614 12.368 26.7861 12.1888 26.8712 11.9915C26.9562 11.7942 27 11.5827 27 11.3691C27 11.1555 26.9562 10.944 26.8712 10.7468C26.7861 10.5495 26.6614 10.3703 26.5043 10.2194L16.3804 0.476221C16.0636 0.171302 15.6339 -4.7071e-07 15.1858 -4.89266e-07C14.7377 -5.07822e-07 14.308 0.171302 13.9912 0.476221C13.6744 0.78114 13.4964 1.1947 13.4964 1.62592C13.4964 2.05714 13.6744 2.4707 13.9912 2.77562L21.2365 9.74527L1.68731 9.74527C1.23981 9.74527 0.810634 9.91636 0.494203 10.2209C0.17777 10.5254 1.40268e-06 10.9385 1.38281e-06 11.3691Z"/>
</mask>
<path d="M21.2365 12.993L26.37 18.3295L39.6153 5.58821L21.2365 5.5882L21.2365 12.993ZM13.9912 19.9627L8.85771 14.6261L8.85646 14.6273L13.9912 19.9627ZM15.1858 22.7383L15.1858 15.3335L15.1858 22.7383ZM26.5043 12.5188L21.3763 7.17703L21.3696 7.18351L26.5043 12.5188ZM27 11.3691L19.5952 11.3691L27 11.3691ZM26.5043 10.2194L21.3696 15.5548L21.3763 15.5612L26.5043 10.2194ZM13.9912 2.77562L8.85646 8.11095L8.85771 8.11215L13.9912 2.77562ZM21.2365 9.74527L21.2365 17.1501L39.6153 17.1501L26.37 4.40875L21.2365 9.74527ZM-7.4048 11.3691C-7.4048 13.8572 -6.37516 16.1833 -4.64052 17.8527L5.62893 7.18206C6.7307 8.24241 7.40481 9.7424 7.40481 11.3691L-7.4048 11.3691ZM-4.64052 17.8527C-2.91553 19.5129 -0.634431 20.3978 1.68731 20.3978L1.68731 5.5882C3.11405 5.5882 4.5368 6.131 5.62893 7.18206L-4.64052 17.8527ZM1.68731 20.3978L21.2365 20.3978L21.2365 5.5882L1.68731 5.5882L1.68731 20.3978ZM16.103 7.65648L8.85771 14.6261L19.1247 25.2992L26.37 18.3295L16.103 7.65648ZM8.85646 14.6273C7.99929 15.4523 7.30355 16.4471 6.82337 17.5628L20.4265 23.4175C20.1162 24.1386 19.6693 24.775 19.1259 25.298L8.85646 14.6273ZM6.82337 17.5628C6.34287 18.6792 6.09156 19.8862 6.09156 21.1124L20.9012 21.1124C20.9012 21.9114 20.7372 22.6956 20.4265 23.4175L6.82337 17.5628ZM6.09156 21.1124C6.09156 22.3385 6.34287 23.5455 6.82337 24.6619L20.4265 18.8072C20.7372 19.5291 20.9012 20.3133 20.9012 21.1124L6.09156 21.1124ZM6.82337 24.6619C7.30355 25.7776 7.99929 26.7724 8.85646 27.5974L19.1259 16.9267C19.6693 17.4497 20.1162 18.0861 20.4265 18.8072L6.82337 24.6619ZM8.85646 27.5974C9.71304 28.4218 10.7147 29.0614 11.7973 29.4929L17.2813 15.7361C17.9539 16.0042 18.5831 16.4043 19.1259 16.9267L8.85646 27.5974ZM11.7973 29.4929C12.8795 29.9243 14.0301 30.1431 15.1858 30.1431L15.1858 15.3335C15.8978 15.3335 16.609 15.4681 17.2813 15.7361L11.7973 29.4929ZM15.1858 30.1431C16.3415 30.1431 17.4921 29.9243 18.5743 29.4929L13.0903 15.7361C13.7626 15.4681 14.4738 15.3335 15.1858 15.3335L15.1858 30.1431ZM18.5743 29.4929C19.6569 29.0614 20.6586 28.4218 21.5151 27.5974L11.2457 16.9267C11.7885 16.4043 12.4177 16.0042 13.0903 15.7361L18.5743 29.4929ZM21.5151 27.5974L31.639 17.8542L21.3696 7.18351L11.2457 16.9267L21.5151 27.5974ZM31.6323 17.8606C32.4916 17.0357 33.1893 16.0402 33.6708 14.9233L20.0715 9.05972C20.3829 8.33744 20.8312 7.7003 21.3763 7.17703L31.6323 17.8606ZM33.6708 14.9233C34.1527 13.8057 34.4048 12.597 34.4048 11.3691L19.5952 11.3691C19.5952 10.5684 19.7597 9.78275 20.0715 9.05972L33.6708 14.9233ZM34.4048 11.3691C34.4048 10.1412 34.1527 8.93258 33.6708 7.81497L20.0715 13.6786C19.7597 12.9555 19.5952 12.1698 19.5952 11.3691L34.4048 11.3691ZM33.6708 7.81497C33.1893 6.6981 32.4916 5.70258 31.6323 4.87763L21.3763 15.5612C20.8312 15.038 20.3829 14.4009 20.0715 13.6786L33.6708 7.81497ZM31.639 4.88411L21.5151 -4.85911L11.2457 5.81155L21.3696 15.5548L31.639 4.88411ZM21.5151 -4.85911C19.7898 -6.51961 17.5081 -7.4048 15.1858 -7.4048L15.1858 7.4048C13.7596 7.4048 12.3374 6.86221 11.2457 5.81155L21.5151 -4.85911ZM15.1858 -7.4048C12.8635 -7.4048 10.5818 -6.51961 8.85646 -4.85911L19.1259 5.81155C18.0342 6.86221 16.612 7.4048 15.1858 7.4048L15.1858 -7.4048ZM8.85646 -4.85911C7.12142 -3.1893 6.09156 -0.862714 6.09156 1.62592L20.9012 1.62592C20.9012 3.25211 20.2273 4.75158 19.1259 5.81155L8.85646 -4.85911ZM6.09156 1.62592C6.09156 4.11456 7.12142 6.44114 8.85646 8.11095L19.1259 -2.55971C20.2273 -1.49974 20.9012 -0.000271732 20.9012 1.62592L6.09156 1.62592ZM8.85771 8.11215L16.103 15.0818L26.37 4.40875L19.1247 -2.5609L8.85771 8.11215ZM21.2365 2.34047L1.68731 2.34046L1.68731 17.1501L21.2365 17.1501L21.2365 2.34047ZM1.68731 2.34046C-0.634447 2.34046 -2.91554 3.22544 -4.64052 4.88556L5.62893 15.5562C4.53681 16.6073 3.11407 17.1501 1.68731 17.1501L1.68731 2.34046ZM-4.64052 4.88556C-6.37516 6.55498 -7.4048 8.88104 -7.4048 11.3691L7.40481 11.3691C7.40481 12.9959 6.7307 14.4959 5.62893 15.5562L-4.64052 4.88556Z" fill="#F6EDDD" mask="url(#path-1-inside-1_75_20)"/>
</svg>
