<svg width="32" height="32" viewBox="0 0 32 32" fill="none" xmlns="http://www.w3.org/2000/svg">
<path d="M25.3333 4H6.66667C5.19391 4 4 5.19391 4 6.66667V25.3333C4 26.8061 5.19391 28 6.66667 28H25.3333C26.8061 28 28 26.8061 28 25.3333V6.66667C28 5.19391 26.8061 4 25.3333 4Z" stroke="#49260A" stroke-width="2" stroke-linecap="round" stroke-linejoin="round"/>
<path d="M11.3335 13.3334C12.4381 13.3334 13.3335 12.4379 13.3335 11.3334C13.3335 10.2288 12.4381 9.33337 11.3335 9.33337C10.2289 9.33337 9.3335 10.2288 9.3335 11.3334C9.3335 12.4379 10.2289 13.3334 11.3335 13.3334Z" stroke="#49260A" stroke-width="2" stroke-linecap="round" stroke-linejoin="round"/>
<path d="M27.9998 20L21.3332 13.3334L6.6665 28" stroke="#49260A" stroke-width="2" stroke-linecap="round" stroke-linejoin="round"/>
</svg>
