<svg width="259" height="32" viewBox="0 0 259 32" fill="none" xmlns="http://www.w3.org/2000/svg">
<path d="M3.22222 5C-1.07407 5 -1.07407 11.6 3.22222 11.6H54.7778C59.0741 11.6 59.0741 5 54.7778 5H3.22222ZM7.51852 13.8V27H13.963V13.8H7.51852ZM44.037 13.8V27H50.4815V13.8H44.037Z" fill="currentColor"/>
<path d="M75.852 22.892H82.292V26H71.932V6.456H75.852V22.892ZM83.7756 18.188C83.7756 16.62 84.0836 15.2293 84.6996 14.016C85.3342 12.8027 86.1836 11.8693 87.2476 11.216C88.3302 10.5627 89.5342 10.236 90.8596 10.236C92.0169 10.236 93.0249 10.4693 93.8836 10.936C94.7609 11.4027 95.4609 11.9907 95.9836 12.7V10.488H99.9316V26H95.9836V23.732C95.4796 24.46 94.7796 25.0667 93.8836 25.552C93.0062 26.0187 91.9889 26.252 90.8316 26.252C89.5249 26.252 88.3302 25.916 87.2476 25.244C86.1836 24.572 85.3342 23.6293 84.6996 22.416C84.0836 21.184 83.7756 19.7747 83.7756 18.188ZM95.9836 18.244C95.9836 17.292 95.7969 16.48 95.4236 15.808C95.0502 15.1173 94.5462 14.5947 93.9116 14.24C93.2769 13.8667 92.5956 13.68 91.8676 13.68C91.1396 13.68 90.4676 13.8573 89.8516 14.212C89.2356 14.5667 88.7316 15.0893 88.3396 15.78C87.9662 16.452 87.7796 17.2547 87.7796 18.188C87.7796 19.1213 87.9662 19.9427 88.3396 20.652C88.7316 21.3427 89.2356 21.8747 89.8516 22.248C90.4862 22.6213 91.1582 22.808 91.8676 22.808C92.5956 22.808 93.2769 22.6307 93.9116 22.276C94.5462 21.9027 95.0502 21.38 95.4236 20.708C95.7969 20.0173 95.9836 19.196 95.9836 18.244ZM110.228 22.388L114.148 10.488H118.32L112.58 26H107.82L102.108 10.488H106.308L110.228 22.388ZM127.41 26.252C125.917 26.252 124.573 25.9253 123.378 25.272C122.183 24.6 121.241 23.6573 120.55 22.444C119.878 21.2307 119.542 19.8307 119.542 18.244C119.542 16.6573 119.887 15.2573 120.578 14.044C121.287 12.8307 122.249 11.8973 123.462 11.244C124.675 10.572 126.029 10.236 127.522 10.236C129.015 10.236 130.369 10.572 131.582 11.244C132.795 11.8973 133.747 12.8307 134.438 14.044C135.147 15.2573 135.502 16.6573 135.502 18.244C135.502 19.8307 135.138 21.2307 134.41 22.444C133.701 23.6573 132.73 24.6 131.498 25.272C130.285 25.9253 128.922 26.252 127.41 26.252ZM127.41 22.836C128.119 22.836 128.782 22.668 129.398 22.332C130.033 21.9773 130.537 21.4547 130.91 20.764C131.283 20.0733 131.47 19.2333 131.47 18.244C131.47 16.7693 131.078 15.64 130.294 14.856C129.529 14.0533 128.586 13.652 127.466 13.652C126.346 13.652 125.403 14.0533 124.638 14.856C123.891 15.64 123.518 16.7693 123.518 18.244C123.518 19.7187 123.882 20.8573 124.61 21.66C125.357 22.444 126.29 22.836 127.41 22.836ZM137.369 18.244C137.369 16.6387 137.696 15.2387 138.349 14.044C139.003 12.8307 139.908 11.8973 141.065 11.244C142.223 10.572 143.548 10.236 145.041 10.236C146.964 10.236 148.551 10.7213 149.801 11.692C151.071 12.644 151.92 13.988 152.349 15.724H148.121C147.897 15.052 147.515 14.5293 146.973 14.156C146.451 13.764 145.797 13.568 145.013 13.568C143.893 13.568 143.007 13.9787 142.353 14.8C141.7 15.6027 141.373 16.7507 141.373 18.244C141.373 19.7187 141.7 20.8667 142.353 21.688C143.007 22.4907 143.893 22.892 145.013 22.892C146.6 22.892 147.636 22.1827 148.121 20.764H152.349C151.92 22.444 151.071 23.7787 149.801 24.768C148.532 25.7573 146.945 26.252 145.041 26.252C143.548 26.252 142.223 25.9253 141.065 25.272C139.908 24.6 139.003 23.6667 138.349 22.472C137.696 21.2587 137.369 19.8493 137.369 18.244ZM163.957 10.264C165.133 10.264 166.178 10.5253 167.093 11.048C168.008 11.552 168.717 12.308 169.221 13.316C169.744 14.3053 170.005 15.5 170.005 16.9V26H166.085V17.432C166.085 16.2 165.777 15.2573 165.161 14.604C164.545 13.932 163.705 13.596 162.641 13.596C161.558 13.596 160.7 13.932 160.065 14.604C159.449 15.2573 159.141 16.2 159.141 17.432V26H155.221V5.28H159.141V12.42C159.645 11.748 160.317 11.2253 161.157 10.852C161.997 10.46 162.93 10.264 163.957 10.264ZM182.917 26L177.653 19.392V26H173.733V5.28H177.653V17.068L182.861 10.488H187.957L181.125 18.272L188.013 26H182.917ZM192.072 8.64C191.382 8.64 190.803 8.42533 190.336 7.996C189.888 7.548 189.664 6.99733 189.664 6.344C189.664 5.69067 189.888 5.14933 190.336 4.72C190.803 4.272 191.382 4.048 192.072 4.048C192.763 4.048 193.332 4.272 193.78 4.72C194.247 5.14933 194.48 5.69067 194.48 6.344C194.48 6.99733 194.247 7.548 193.78 7.996C193.332 8.42533 192.763 8.64 192.072 8.64ZM194.004 10.488V26H190.084V10.488H194.004ZM221.265 26H217.345L208.469 12.588V26H204.549V6.428H208.469L217.345 19.868V6.428H221.265V26ZM231.887 26.196C230.524 26.196 229.292 25.9627 228.191 25.496C227.108 25.0293 226.25 24.3573 225.615 23.48C224.98 22.6027 224.654 21.5667 224.635 20.372H228.835C228.891 21.1747 229.171 21.8093 229.675 22.276C230.198 22.7427 230.907 22.976 231.803 22.976C232.718 22.976 233.436 22.7613 233.959 22.332C234.482 21.884 234.743 21.3053 234.743 20.596C234.743 20.0173 234.566 19.5413 234.211 19.168C233.856 18.7947 233.408 18.5053 232.867 18.3C232.344 18.076 231.616 17.8333 230.683 17.572C229.414 17.1987 228.378 16.8347 227.575 16.48C226.791 16.1067 226.11 15.556 225.531 14.828C224.971 14.0813 224.691 13.092 224.691 11.86C224.691 10.7027 224.98 9.69467 225.559 8.836C226.138 7.97733 226.95 7.324 227.995 6.876C229.04 6.40933 230.235 6.176 231.579 6.176C233.595 6.176 235.228 6.67067 236.479 7.66C237.748 8.63067 238.448 9.99333 238.579 11.748H234.267C234.23 11.076 233.94 10.5253 233.399 10.096C232.876 9.648 232.176 9.424 231.299 9.424C230.534 9.424 229.918 9.62 229.451 10.012C229.003 10.404 228.779 10.9733 228.779 11.72C228.779 12.2427 228.947 12.6813 229.283 13.036C229.638 13.372 230.067 13.652 230.571 13.876C231.094 14.0813 231.822 14.324 232.755 14.604C234.024 14.9773 235.06 15.3507 235.863 15.724C236.666 16.0973 237.356 16.6573 237.935 17.404C238.514 18.1507 238.803 19.1307 238.803 20.344C238.803 21.3893 238.532 22.36 237.991 23.256C237.45 24.152 236.656 24.8707 235.611 25.412C234.566 25.9347 233.324 26.196 231.887 26.196ZM253.234 26L246.122 17.292V26H242.202V6.456H246.122V15.22L253.234 6.456H257.966L249.902 16.144L258.19 26H253.234Z" fill="currentColor"/>
</svg>
