<svg width="24" height="24" viewBox="0 0 24 24" fill="none" xmlns="http://www.w3.org/2000/svg">
<path fill-rule="evenodd" clip-rule="evenodd" d="M0 8.24944C0 7.66271 0.488417 7.18707 1.09091 7.18707H13.0909C13.6934 7.18707 14.1818 7.66271 14.1818 8.24944C14.1818 8.83617 13.6934 9.31181 13.0909 9.31181H1.09091C0.488417 9.31181 0 8.83617 0 8.24944ZM18.5455 8.24944C18.5455 7.66271 19.0339 7.18707 19.6364 7.18707H22.9091C23.5116 7.18707 24 7.66271 24 8.24944C24 8.83617 23.5116 9.31181 22.9091 9.31181H19.6364C19.0339 9.31181 18.5455 8.83617 18.5455 8.24944Z" fill="#49260A"/>
<path fill-rule="evenodd" clip-rule="evenodd" d="M0 16.7484C0 16.1617 0.488417 15.686 1.09091 15.686H4.36364C4.96613 15.686 5.45455 16.1617 5.45455 16.7484C5.45455 17.3351 4.96613 17.8108 4.36364 17.8108H1.09091C0.488417 17.8108 0 17.3351 0 16.7484ZM9.81818 16.7484C9.81818 16.1617 10.3066 15.686 10.9091 15.686H22.9091C23.5116 15.686 24 16.1617 24 16.7484C24 17.3351 23.5116 17.8108 22.9091 17.8108H10.9091C10.3066 17.8108 9.81818 17.3351 9.81818 16.7484Z" fill="#49260A"/>
<path fill-rule="evenodd" clip-rule="evenodd" d="M16.3636 6.12473C15.1587 6.12473 14.1818 7.07601 14.1818 8.24947C14.1818 9.42293 15.1587 10.3742 16.3636 10.3742C17.5686 10.3742 18.5455 9.42293 18.5455 8.24947C18.5455 7.07601 17.5686 6.12473 16.3636 6.12473ZM12 8.24947C12 5.90255 13.9537 4 16.3636 4C18.7736 4 20.7273 5.90255 20.7273 8.24947C20.7273 10.5964 18.7736 12.4989 16.3636 12.4989C13.9537 12.4989 12 10.5964 12 8.24947Z" fill="#49260A"/>
<path fill-rule="evenodd" clip-rule="evenodd" d="M7.63636 14.6236C8.84135 14.6236 9.81818 15.5749 9.81818 16.7484C9.81818 17.9218 8.84135 18.8731 7.63636 18.8731C6.43138 18.8731 5.45455 17.9218 5.45455 16.7484C5.45455 15.5749 6.43138 14.6236 7.63636 14.6236ZM12 16.7484C12 14.4015 10.0463 12.4989 7.63636 12.4989C5.22639 12.4989 3.27273 14.4015 3.27273 16.7484C3.27273 19.0953 5.22639 20.9978 7.63636 20.9978C10.0463 20.9978 12 19.0953 12 16.7484Z" fill="#49260A"/>
</svg>
