<svg width="48" height="48" viewBox="0 0 48 48" fill="none" xmlns="http://www.w3.org/2000/svg">
<rect width="48" height="48" rx="10" fill="#FFFCF7"/>
<path d="M23.5766 34.1455C24.7929 34.1455 26.3745 34.3496 26.6691 33.1696C26.7188 32.9705 26.7137 32.6379 26.719 32.4328C26.7382 31.6934 26.8919 29.8503 27.9367 29.5518C29.2492 29.1768 30.9367 32.2705 32.718 33.4893C33.3608 33.9025 33.9362 34.0909 34.356 34.1755C34.8204 34.2691 35.2988 34.2346 35.7724 34.2253L39.2713 34.1567C39.6523 34.1493 40.0376 34.1439 40.4024 34.0335C41.0447 33.8393 41.9176 33.323 41.1555 31.9893C41.0617 31.8018 40.3117 30.583 37.4992 28.0518C34.593 25.2393 35.0617 25.708 38.5305 20.9268C40.6867 18.0205 41.6242 16.2393 41.343 15.583C41.1292 15.209 40.5501 15.0786 40.0915 15.0356C39.6771 14.9968 39.2597 15.0205 38.8436 15.0205H34.1242C33.2343 15.0205 32.8521 16.0066 32.506 16.8264C32.1513 17.6666 31.6309 18.801 31.0305 19.8018C28.6867 23.833 27.7492 24.0205 27.2805 23.7393C26.4367 23.2705 26.6242 21.4893 26.6242 20.2705C26.6242 16.0518 27.2805 14.5518 25.4055 14.1768C24.1867 13.9893 19.8742 13.8018 18.5617 14.458C18.4761 14.507 18.3952 14.5607 18.32 14.6173C17.669 15.1075 18.1697 15.4741 18.8961 15.8435C19.2185 16.0075 19.5082 16.3921 19.612 16.7386C20.1629 18.578 20.1451 23.3273 19.218 23.833C17.8117 24.8643 14.2492 18.0205 13.4055 15.7705C13.093 14.8331 11.7792 14.9268 10.791 14.9268H7.12422C6.56172 14.9268 5.71797 15.0205 6.09297 16.1455C8.62422 21.3955 13.8742 34.2393 23.343 34.1455H23.5766Z" fill="#49260A"/>
</svg>
