<svg width="24" height="24" viewBox="0 0 24 24" fill="none" xmlns="http://www.w3.org/2000/svg">
<g id="Right double arrow">
<path id="Vector" d="M7.00005 18.9999C6.7664 19.0004 6.53996 18.919 6.36005 18.7699C6.25879 18.686 6.17509 18.5829 6.11374 18.4665C6.05239 18.3502 6.01459 18.2229 6.00251 18.0919C5.99044 17.9609 6.00432 17.8289 6.04337 17.7033C6.08241 17.5777 6.14585 17.461 6.23005 17.3599L10.7101 11.9999L6.39005 6.62994C6.30699 6.52765 6.24495 6.40996 6.20752 6.28362C6.17009 6.15728 6.158 6.02479 6.17194 5.89376C6.18587 5.76273 6.22557 5.63575 6.28875 5.52011C6.35192 5.40447 6.43732 5.30246 6.54005 5.21994C6.64352 5.1289 6.76468 5.06024 6.89595 5.01825C7.02721 4.97626 7.16573 4.96185 7.30283 4.97594C7.43992 4.99002 7.57262 5.03229 7.6926 5.1001C7.81259 5.1679 7.91726 5.25977 8.00005 5.36994L12.8301 11.3699C12.9771 11.5489 13.0575 11.7733 13.0575 12.0049C13.0575 12.2366 12.9771 12.461 12.8301 12.6399L7.83005 18.6399C7.72973 18.761 7.6023 18.8566 7.45809 18.9192C7.31388 18.9817 7.15696 19.0094 7.00005 18.9999Z" fill="#49260A"/>
<path id="Vector_2" d="M13.0001 18.9999C12.7664 19.0004 12.54 18.919 12.3601 18.7699C12.2588 18.686 12.1751 18.5829 12.1137 18.4665C12.0524 18.3502 12.0146 18.2229 12.0025 18.0919C11.9904 17.9609 12.0043 17.8289 12.0434 17.7033C12.0824 17.5777 12.1458 17.461 12.2301 17.3599L16.7101 11.9999L12.3901 6.62994C12.307 6.52765 12.245 6.40996 12.2075 6.28362C12.1701 6.15728 12.158 6.02479 12.1719 5.89376C12.1859 5.76273 12.2256 5.63575 12.2887 5.52011C12.3519 5.40447 12.4373 5.30246 12.5401 5.21994C12.6435 5.1289 12.7647 5.06024 12.8959 5.01825C13.0272 4.97626 13.1657 4.96185 13.3028 4.97594C13.4399 4.99002 13.5726 5.03229 13.6926 5.1001C13.8126 5.1679 13.9173 5.25977 14.0001 5.36994L18.8301 11.3699C18.9771 11.5489 19.0575 11.7733 19.0575 12.0049C19.0575 12.2366 18.9771 12.461 18.8301 12.6399L13.8301 18.6399C13.7297 18.761 13.6023 18.8566 13.4581 18.9192C13.3139 18.9817 13.157 19.0094 13.0001 18.9999Z" fill="#49260A"/>
</g>
</svg>
