<svg width="24" height="24" viewBox="0 0 24 24" fill="none" xmlns="http://www.w3.org/2000/svg">
<g id="Left double arrow">
<path id="Vector" d="M16.9999 18.9999C17.2336 19.0004 17.46 18.919 17.6399 18.7699C17.7412 18.686 17.8249 18.5829 17.8863 18.4665C17.9476 18.3502 17.9854 18.2229 17.9975 18.0919C18.0096 17.9609 17.9957 17.8289 17.9566 17.7033C17.9176 17.5777 17.8542 17.461 17.7699 17.3599L13.2899 11.9999L17.6099 6.62994C17.693 6.52765 17.755 6.40996 17.7925 6.28362C17.8299 6.15728 17.842 6.02479 17.8281 5.89376C17.8141 5.76273 17.7744 5.63575 17.7113 5.52011C17.6481 5.40447 17.5627 5.30246 17.4599 5.21994C17.3565 5.1289 17.2353 5.06024 17.1041 5.01825C16.9728 4.97626 16.8343 4.96185 16.6972 4.97594C16.5601 4.99002 16.4274 5.03229 16.3074 5.1001C16.1874 5.1679 16.0827 5.25977 15.9999 5.36994L11.1699 11.3699C11.0229 11.5489 10.9425 11.7733 10.9425 12.0049C10.9425 12.2366 11.0229 12.461 11.1699 12.6399L16.1699 18.6399C16.2703 18.761 16.3977 18.8566 16.5419 18.9192C16.6861 18.9817 16.843 19.0094 16.9999 18.9999Z" fill="#49260A"/>
<path id="Vector_2" d="M10.9999 18.9999C11.2336 19.0004 11.46 18.919 11.6399 18.7699C11.7412 18.686 11.8249 18.5829 11.8863 18.4665C11.9476 18.3502 11.9854 18.2229 11.9975 18.0919C12.0096 17.9609 11.9957 17.8289 11.9566 17.7033C11.9176 17.5777 11.8542 17.461 11.7699 17.3599L7.28995 11.9999L11.6099 6.62994C11.693 6.52765 11.755 6.40996 11.7925 6.28362C11.8299 6.15728 11.842 6.02479 11.8281 5.89376C11.8141 5.76273 11.7744 5.63575 11.7113 5.52011C11.6481 5.40447 11.5627 5.30246 11.4599 5.21994C11.3565 5.1289 11.2353 5.06024 11.1041 5.01825C10.9728 4.97626 10.8343 4.96185 10.6972 4.97594C10.5601 4.99002 10.4274 5.03229 10.3074 5.1001C10.1874 5.1679 10.0827 5.25977 9.99995 5.36994L5.16995 11.3699C5.02287 11.5489 4.94246 11.7733 4.94246 12.0049C4.94246 12.2366 5.02287 12.461 5.16995 12.6399L10.1699 18.6399C10.2703 18.761 10.3977 18.8566 10.5419 18.9192C10.6861 18.9817 10.843 19.0094 10.9999 18.9999Z" fill="#49260A"/>
</g>
</svg>
