<svg width="24" height="24" viewBox="0 0 24 24" fill="none" xmlns="http://www.w3.org/2000/svg">
<g id="Left arrow">
<path id="Vector" d="M13.9999 18.9999C14.2336 19.0004 14.46 18.919 14.6399 18.7699C14.7412 18.686 14.8249 18.5829 14.8863 18.4665C14.9476 18.3502 14.9854 18.2229 14.9975 18.0919C15.0096 17.9609 14.9957 17.8289 14.9566 17.7033C14.9176 17.5777 14.8542 17.461 14.7699 17.3599L10.2899 11.9999L14.6099 6.62994C14.693 6.52765 14.755 6.40996 14.7925 6.28362C14.8299 6.15728 14.842 6.02479 14.8281 5.89376C14.8141 5.76273 14.7744 5.63575 14.7113 5.52011C14.6481 5.40447 14.5627 5.30246 14.4599 5.21994C14.3565 5.1289 14.2353 5.06024 14.1041 5.01825C13.9728 4.97626 13.8343 4.96185 13.6972 4.97594C13.5601 4.99002 13.4274 5.03229 13.3074 5.1001C13.1874 5.1679 13.0827 5.25977 12.9999 5.36994L8.16995 11.3699C8.02287 11.5489 7.94246 11.7733 7.94246 12.0049C7.94246 12.2366 8.02287 12.461 8.16995 12.6399L13.1699 18.6399C13.2703 18.761 13.3977 18.8566 13.5419 18.9192C13.6861 18.9817 13.843 19.0094 13.9999 18.9999Z" fill="#49260A"/>
</g>
</svg>
