<?xml version="1.0" encoding="UTF-8"?>
<svg width="700pt" height="700pt" version="1.1" viewBox="0 0 700 700" xmlns="http://www.w3.org/2000/svg">
 <path d="m350 70c-34.754-0.078125-68.977 8.5469-99.543 25.086-30.57 16.539-56.508 40.469-75.457 69.605v-48.023h-35v116.67l116.67-0.003907v-35h-61.098c20.07-37.574 53.191-66.512 93.125-81.352 39.93-14.84 83.914-14.559 123.65 0.79297 39.738 15.352 72.484 44.711 92.07 82.539 19.586 37.832 24.652 81.523 14.246 122.83-10.406 41.309-35.566 77.387-70.734 101.43-35.172 24.035-77.922 34.379-120.19 29.07-42.27-5.3047-81.137-25.895-109.27-57.879-28.137-31.988-43.598-73.16-43.469-115.76h-35c0 55.695 22.125 109.11 61.508 148.49 39.383 39.383 92.797 61.508 148.49 61.508s109.11-22.125 148.49-61.508c39.383-39.383 61.508-92.797 61.508-148.49s-22.125-109.11-61.508-148.49c-39.383-39.383-92.797-61.508-148.49-61.508z" fill="currentColor" />
</svg>
