<svg width="9" height="14" viewBox="0 0 9 14" fill="none" xmlns="http://www.w3.org/2000/svg">
<path d="M4.74433 0.111424L8.89874 4.65166C9.03375 4.79922 9.03375 5.03909 8.89874 5.18665C8.76372 5.33421 8.54423 5.33421 8.40921 5.18665L4.84611 1.29264V13.6216C4.84611 13.8305 4.69102 14 4.49991 14C4.30881 14 4.15371 13.8305 4.15371 13.6216V1.29264L0.590618 5.18665C0.4556 5.33421 0.236109 5.33421 0.10109 5.18665C0.0332352 5.11249 0 5.01563 0 4.91878C0 4.82192 0.0339276 4.72506 0.10109 4.6509L4.2555 0.110668C4.39051 -0.0368891 4.61 -0.0368891 4.74502 0.110668L4.74433 0.111424Z" fill="#49260A"/>
</svg>
