<svg width="62" height="62" viewBox="0 0 62 62" xmlns="http://www.w3.org/2000/svg">
<path d="M31 1.06807e-07C24.8688 1.06807e-07 18.8753 1.81812 13.7773 5.22444C8.67941 8.63076 4.70606 13.4723 2.35975 19.1368C0.0134318 24.8013 -0.600471 31.0344 0.59567 37.0478C1.79181 43.0612 4.74428 48.5849 9.0797 52.9203C13.4151 57.2557 18.9388 60.2082 24.9522 61.4043C30.9656 62.6005 37.1987 61.9866 42.8632 59.6403C48.5277 57.2939 53.3692 53.3206 56.7756 48.2227C60.1819 43.1247 62 37.1312 62 31C62.0003 26.9289 61.1987 22.8977 59.641 19.1364C58.0832 15.3752 55.7998 11.9576 52.9211 9.07893C50.0424 6.20025 46.6248 3.91682 42.8636 2.35905C39.1023 0.80127 35.0711 -0.000337834 31 1.06807e-07ZM40.8565 46.9726C40.7405 47.262 40.5639 47.5231 40.3387 47.7387C40.1135 47.9542 39.8448 48.1191 39.5506 48.2222C39.2565 48.3254 38.9437 48.3645 38.6332 48.337C38.3227 48.3094 38.0216 48.2157 37.7503 48.0623L29.3348 41.5232L23.9336 46.5062C23.8083 46.5988 23.6617 46.6584 23.5073 46.6795C23.3529 46.7006 23.1957 46.6825 23.0501 46.6269L24.0855 37.3627L24.1187 37.389L24.1398 37.2061C24.1398 37.2061 39.2833 23.4188 39.9002 22.8314C40.5248 22.2455 40.3187 22.1184 40.3187 22.1184C40.3543 21.4037 39.198 22.1184 39.198 22.1184L19.1332 35.0269L10.7772 32.1811C10.7772 32.1811 9.49379 31.7207 9.37289 30.7086C9.24579 29.7042 10.819 29.1586 10.819 29.1586L44.0417 15.9603C44.0417 15.9603 46.7728 14.7435 46.7728 16.7586L40.8565 46.9726Z" fill="currentColor"/>
</svg>
