<svg width="24" height="32" viewBox="0 0 24 32" fill="none" xmlns="http://www.w3.org/2000/svg">
<path d="M12 32L11.2615 31.211C10.8 30.7726 0 18.674 0 11.3973C0 5.08493 5.35385 0 12 0C18.6462 0 24 5.08493 24 11.3973C24 18.674 13.2 30.7726 12.7385 31.2986L12 32ZM12 1.75342C6.36923 1.75342 1.84615 6.04931 1.84615 11.3973C1.84615 17.0082 9.6 26.4767 12 29.2822C14.4 26.4767 22.1538 17.0082 22.1538 11.3973C22.1538 6.04931 17.6308 1.75342 12 1.75342Z" fill="#49260A"/>
<path d="M11.9998 15.7807C9.41523 15.7807 7.38446 13.8519 7.38446 11.3971C7.38446 8.94235 9.41523 7.01358 11.9998 7.01358C14.5845 7.01358 16.6152 8.94235 16.6152 11.3971C16.6152 13.8519 14.5845 15.7807 11.9998 15.7807ZM11.9998 8.767C10.4306 8.767 9.23061 9.90673 9.23061 11.3971C9.23061 12.8876 10.4306 14.0273 11.9998 14.0273C13.5691 14.0273 14.7691 12.8876 14.7691 11.3971C14.7691 9.90673 13.5691 8.767 11.9998 8.767Z" fill="#49260A"/>
</svg>
