<svg width="24" height="24" viewBox="0 0 24 24" fill="none" xmlns="http://www.w3.org/2000/svg">
<path d="M3.66666 3.6668C4.03485 3.29862 4.6318 3.29862 4.99998 3.6668L20.3332 19C20.7014 19.3682 20.7014 19.9652 20.3332 20.3333C19.965 20.7015 19.3681 20.7015 18.9999 20.3333L3.66666 5.00013C3.29847 4.63194 3.29847 4.03499 3.66666 3.6668Z" fill="currentColor"/>
<path d="M20.3333 3.66666C20.7014 4.03485 20.7014 4.6318 20.3333 4.99998L5.00004 20.3332C4.63186 20.7014 4.03491 20.7014 3.66672 20.3332C3.29853 19.965 3.29853 19.3681 3.66672 18.9999L18.9999 3.66666C19.3681 3.29847 19.9651 3.29847 20.3333 3.66666Z" fill="currentColor"/>
</svg>
