<svg width="20" height="20" viewBox="0 0 20 20" fill="none" xmlns="http://www.w3.org/2000/svg">
<path d="M10.0001 0.666687L10.3255 0.287059C10.1382 0.126563 9.86193 0.126563 9.67469 0.287059L10.0001 0.666687ZM0.666748 8.66669L0.341352 8.28706L0.166748 8.43672V8.66669H0.666748ZM7.33341 19.3334V19.8334C7.60956 19.8334 7.83341 19.6095 7.83341 19.3334H7.33341ZM12.6667 19.3334H12.1667C12.1667 19.6095 12.3906 19.8334 12.6667 19.8334V19.3334ZM19.3334 8.66669H19.8334V8.43672L19.6588 8.28706L19.3334 8.66669ZM2.00008 19.8334H7.33341V18.8334H2.00008V19.8334ZM19.6588 8.28706L10.3255 0.287059L9.67469 1.04632L19.008 9.04632L19.6588 8.28706ZM9.67469 0.287059L0.341352 8.28706L0.992144 9.04632L10.3255 1.04632L9.67469 0.287059ZM7.83341 19.3334V15.3334H6.83341V19.3334H7.83341ZM12.1667 15.3334V19.3334H13.1667V15.3334H12.1667ZM12.6667 19.8334H18.0001V18.8334H12.6667V19.8334ZM19.8334 18V8.66669H18.8334V18H19.8334ZM0.166748 8.66669V18H1.16675V8.66669H0.166748ZM10.0001 13.1667C11.1967 13.1667 12.1667 14.1367 12.1667 15.3334H13.1667C13.1667 13.5845 11.749 12.1667 10.0001 12.1667V13.1667ZM10.0001 12.1667C8.25118 12.1667 6.83341 13.5845 6.83341 15.3334H7.83341C7.83341 14.1367 8.80346 13.1667 10.0001 13.1667V12.1667ZM18.0001 19.8334C19.0126 19.8334 19.8334 19.0125 19.8334 18H18.8334C18.8334 18.4603 18.4603 18.8334 18.0001 18.8334V19.8334ZM2.00008 18.8334C1.53984 18.8334 1.16675 18.4603 1.16675 18H0.166748C0.166748 19.0125 0.987559 19.8334 2.00008 19.8334V18.8334Z" fill="currentColor"/>
</svg>
