<svg width="20" height="21" viewBox="0 0 20 21" fill="none" xmlns="http://www.w3.org/2000/svg">
<path d="M12.125 0.363985C11.9969 0.519664 11.9184 0.710186 11.8997 0.910934C11.881 1.11168 11.9229 1.31343 12.02 1.49011C12.7788 2.8833 13.1751 4.44493 13.1724 6.03136C13.1724 11.3089 8.87 15.5824 3.5675 15.5824C2.87581 15.5824 2.2025 15.5102 1.55544 15.3724C1.35708 15.3295 1.15047 15.3459 0.961401 15.4197C0.772329 15.4934 0.609177 15.6212 0.492313 15.7872C0.368952 15.9597 0.306059 16.1682 0.313417 16.3801C0.320776 16.5921 0.397972 16.7957 0.533001 16.9592C1.56242 18.2237 2.86105 19.2426 4.33422 19.9415C5.80739 20.6404 7.41796 21.0017 9.0485 20.9991C15.0991 20.9991 20 16.1245 20 10.1185C20 5.59824 17.2254 1.72111 13.2747 0.07786C13.078 -0.00531065 12.8595 -0.0223811 12.6522 0.0292131C12.4448 0.0808073 12.2599 0.19828 12.125 0.363985Z" fill="currentColor"/>
<path d="M6.83091 4.13088C6.81209 4.07405 6.77584 4.02458 6.7273 3.98953C6.67876 3.95447 6.62041 3.9356 6.56054 3.9356C6.50066 3.9356 6.44231 3.95447 6.39377 3.98953C6.34524 4.02458 6.30898 4.07405 6.29016 4.13088L5.78222 5.65601C5.55516 6.33588 5.02229 6.86876 4.34241 7.09582L2.81729 7.60376C2.76045 7.62258 2.71099 7.65883 2.67593 7.70737C2.64087 7.75591 2.622 7.81426 2.622 7.87413C2.622 7.93401 2.64087 7.99236 2.67593 8.0409C2.71099 8.08943 2.76045 8.12569 2.81729 8.14451L4.34241 8.65245C4.67772 8.76416 4.98241 8.95244 5.23232 9.20235C5.48223 9.45226 5.67051 9.75695 5.78222 10.0923L6.29016 11.6174C6.30898 11.6742 6.34524 11.7237 6.39377 11.7587C6.44231 11.7938 6.50066 11.8127 6.56054 11.8127C6.62041 11.8127 6.67876 11.7938 6.7273 11.7587C6.7784 11.7237 6.81209 11.6742 6.83091 11.6174L7.33885 10.0923C7.45057 9.75695 7.63884 9.45226 7.88875 9.20235C8.13867 8.95244 8.44335 8.76416 8.77866 8.65245L10.3038 8.14451C10.3606 8.12569 10.4101 8.08943 10.4451 8.0409C10.4802 7.99236 10.4991 7.93401 10.4991 7.87413C10.4991 7.81426 10.4802 7.75591 10.4451 7.70737C10.4101 7.65883 10.3606 7.62258 10.3038 7.60376L8.77866 7.09582C8.44335 6.98411 8.13867 6.79583 7.88875 6.54592C7.63884 6.296 7.45057 5.99132 7.33885 5.65601L6.83091 4.13088ZM2.80285 0.129071C2.78989 0.0916991 2.76561 0.059293 2.73339 0.0363579C2.70116 0.0134229 2.66259 0.00109863 2.62304 0.00109863C2.58348 0.00109863 2.54491 0.0134229 2.51269 0.0363579C2.48046 0.059293 2.45618 0.0916991 2.44322 0.129071L2.1046 1.14495C1.95366 1.59907 1.59797 1.95476 1.14385 2.1057L0.127975 2.44432C0.0906038 2.45728 0.058197 2.48156 0.0352621 2.51378C0.0123272 2.54601 2.86102e-06 2.58458 2.86102e-06 2.62413C2.86102e-06 2.66369 0.0123272 2.70226 0.0352621 2.73448C0.058197 2.76671 0.0906038 2.79099 0.127975 2.80395L1.14385 3.14257C1.36765 3.21702 1.571 3.34262 1.73778 3.50939C1.90455 3.67617 2.03015 3.87953 2.1046 4.10332L2.44322 5.1192C2.45618 5.15657 2.48046 5.18897 2.51269 5.21191C2.54491 5.23484 2.58348 5.24717 2.62304 5.24717C2.66259 5.24717 2.70116 5.23484 2.73339 5.21191C2.76561 5.18897 2.78989 5.15657 2.80285 5.1192L3.14148 4.10332C3.21592 3.87953 3.34152 3.67617 3.5083 3.50939C3.67507 3.34262 3.87843 3.21702 4.10222 3.14257L5.1181 2.80395C5.15547 2.79099 5.18788 2.76671 5.21081 2.73448C5.23375 2.70226 5.24607 2.66369 5.24607 2.62413C5.24607 2.58458 5.23375 2.54601 5.21081 2.51378C5.18788 2.48156 5.15547 2.45728 5.1181 2.44432L4.10222 2.1057C3.6481 1.95476 3.29241 1.59907 3.14148 1.14495L2.80285 0.130383V0.129071Z" fill="currentcolor"/>
</svg>
