<svg width="21" height="21" viewBox="0 0 21 21" fill="none" xmlns="http://www.w3.org/2000/svg">
<path id="Vector" d="M10.5 4.97783C7.4501 4.97783 4.97768 7.45025 4.97768 10.4985C4.97768 13.5485 7.4501 16.0209 10.5 16.0209C13.5499 16.0209 16.0224 13.5485 16.0224 10.4985C16.0224 7.45025 13.5499 4.97783 10.5 4.97783ZM9.31221 3.97213H11.6895C11.7994 3.97213 11.9011 3.91799 11.9651 3.82775C12.0274 3.73916 12.0422 3.62268 12.0045 3.51932L10.815 0.30041C10.7658 0.16752 10.6411 0.0805664 10.5 0.0805664C10.3589 0.0805664 10.2342 0.16916 10.185 0.30041L8.99557 3.52096C8.95784 3.62432 8.9726 3.73916 9.03495 3.82939C9.09893 3.91963 9.20229 3.97213 9.31221 3.97213ZM15.9567 6.7251C16.0191 6.78908 16.106 6.82353 16.193 6.82353C16.2127 6.82353 16.2324 6.82189 16.2521 6.81861C16.3603 6.79893 16.4506 6.72838 16.4982 6.6283L17.9353 3.50947C17.9944 3.3815 17.9665 3.23221 17.8681 3.13213C17.768 3.03205 17.6171 3.0058 17.4891 3.06322L14.3719 4.50205C14.2718 4.54799 14.2013 4.63986 14.1816 4.74814C14.1619 4.85643 14.198 4.96635 14.2735 5.0451L15.9567 6.7251ZM20.7014 10.1852L17.4792 8.99736C17.3759 8.95963 17.261 8.97439 17.1708 9.03674C17.0806 9.09908 17.0281 9.2008 17.0281 9.31072L17.0297 11.688C17.0297 11.7979 17.0839 11.9013 17.1741 11.9636C17.2315 12.0013 17.2988 12.0227 17.366 12.0227C17.4054 12.0227 17.4448 12.0161 17.4825 12.0013L20.7047 10.8135C20.836 10.766 20.9246 10.6396 20.9246 10.4969C20.9213 10.3591 20.8343 10.2344 20.7014 10.1852ZM16.4982 14.3721C16.4755 14.3229 16.4413 14.2799 16.3984 14.2467C16.3556 14.2136 16.3054 14.1913 16.2521 14.1817C16.1438 14.1637 16.0322 14.1981 15.9567 14.2753L14.2751 15.9569C14.198 16.034 14.1619 16.1456 14.1816 16.2538C14.2013 16.3605 14.2718 16.454 14.3719 16.4999L17.4907 17.9371C17.535 17.9585 17.5826 17.9667 17.6318 17.9667C17.7188 17.9667 17.8041 17.9322 17.8681 17.8682C17.9682 17.7681 17.9944 17.6188 17.9353 17.4909L16.4982 14.3721ZM11.6878 17.0266L9.31057 17.0282C9.20065 17.0282 9.09893 17.0824 9.03659 17.1726C8.97425 17.2628 8.95948 17.3777 8.99557 17.4794L10.185 20.7016C10.2342 20.8328 10.3589 20.9214 10.5 20.9214C10.6411 20.9214 10.7658 20.8328 10.815 20.7016L12.0045 17.4794C12.0422 17.376 12.0274 17.2612 11.9651 17.171C11.9011 17.0807 11.7994 17.0266 11.6878 17.0266ZM5.04331 14.2753C4.9662 14.1981 4.85628 14.1637 4.748 14.1817C4.63971 14.2014 4.54784 14.272 4.5019 14.3721L3.06471 17.4909C3.00565 17.6188 3.03354 17.7698 3.13362 17.8682C3.18203 17.9168 3.2442 17.9493 3.3117 17.9613C3.37919 17.9733 3.44876 17.9643 3.51096 17.9355L6.62979 16.4967C6.67899 16.474 6.72198 16.4398 6.75511 16.3969C6.78825 16.3541 6.81054 16.3039 6.8201 16.2506C6.83979 16.1423 6.8037 16.0324 6.72659 15.9553L5.04331 14.2753ZM3.63729 12.0243C3.70456 12.0243 3.77182 12.003 3.82925 11.9636C3.91948 11.9013 3.97362 11.7979 3.97362 11.688L3.97198 9.31072C3.97199 9.2567 3.95895 9.20347 3.93398 9.15557C3.90901 9.10766 3.87283 9.0665 3.82854 9.03557C3.78424 9.00464 3.73313 8.98487 3.67956 8.97793C3.62598 8.97099 3.57152 8.9771 3.52081 8.99572L0.29862 10.1852C0.234104 10.2088 0.178407 10.2517 0.13906 10.3081C0.0997131 10.3644 0.0786133 10.4315 0.0786133 10.5002C0.0786133 10.5689 0.0997131 10.636 0.13906 10.6923C0.178407 10.7486 0.234104 10.7915 0.29862 10.8152L3.52245 12.003C3.56018 12.0178 3.59792 12.0243 3.63729 12.0243ZM4.50354 6.6283C4.52626 6.67746 4.56052 6.72041 4.6034 6.75349C4.64627 6.78657 4.69651 6.80881 4.74982 6.81831C4.80314 6.82782 4.85796 6.8243 4.90963 6.80807C4.9613 6.79185 5.00828 6.76338 5.04659 6.7251L6.72659 5.04346C6.8037 4.96471 6.83815 4.85479 6.81846 4.7465C6.79878 4.63986 6.72823 4.54799 6.62815 4.50205L3.50768 3.06486C3.37971 3.0058 3.23042 3.03369 3.13034 3.13377C3.03026 3.23385 3.00401 3.38314 3.06307 3.51111L4.50354 6.6283Z" fill="currentColor"/>
</svg>
